<svg xmlns="http://www.w3.org/2000/svg" viewBox="0 0 90 90">
  <g id="_ÎÓÈ_1" data-name="—ÎÓÈ_1">
    <path d="M34.5106,42.0089c-.0729-.1673-.1135-.2669-.159-.3641a20.8739,20.8739,0,0,1-2.0762-7.9837c-.0738-1.7249.0328-3.4578.0652-5.1869a.51.51,0,0,1,.4816-.5343.549.549,0,0,1,.6129.4366q.62,1.7625,1.2427,3.524,1.9281,5.4635,3.8566,10.9266a.4375.4375,0,0,0,.1347.2079c-.049-.3631-.0973-.7262-.147-1.0892a12.3553,12.3553,0,0,1,1.6235-8.223A25.2682,25.2682,0,0,1,42.05,31.21a.5334.5334,0,0,1,.73-.1776.5869.5869,0,0,1,.2639.71c-.4228,2.2707-.8587,4.5393-1.2435,6.8166a19.5583,19.5583,0,0,0-.1333,2.1531l.1206.0151c.036-.2313.0755-.462.1073-.6938a18.4142,18.4142,0,0,1,2.989-7.958,9.1312,9.1312,0,0,1,6.8479-4.0819,3.8552,3.8552,0,0,1,.8889-.0455.986.986,0,0,1,.5619.2957c.1753.1938.06.4276-.0732.6306-.66,1.0042-1.3578,1.9866-1.9677,3.0207A34.4967,34.4967,0,0,0,47.0781,42.55a.3136.3136,0,0,0,.0376.2209c.0758-.1722.1534-.3437.227-.5169a35.7167,35.7167,0,0,1,2.69-5.5876,18.5907,18.5907,0,0,1,3.4711-4.2,5.13,5.13,0,0,1,8.042,1.8441c.1612.3535.3013.7165.4594,1.0715a.5555.5555,0,0,1-.8158.7048c-.5883-.3546-1.1761-.71-1.7665-1.0613a2.9757,2.9757,0,0,0-4.0888.7874,56.0139,56.0139,0,0,0-4.4686,7.0007c-.0265.049-.0479.1007-.1069.226.1511-.0861.2444-.1337.3321-.19a7.1119,7.1119,0,0,1,10.7047,3.9128c.077.2512.1409.5068.2268.755a.559.559,0,0,1-.9524.5675c-.6006-.6-1.1978-1.2029-1.8021-1.7987a4.3344,4.3344,0,0,0-5.7642-.3593c-.053.0408-.1015.0874-.2018.1744.2591.0446.4665.073.6706.1166a4.9038,4.9038,0,0,1,3.69,2.9864c1.4629,3.44,2.887,6.8956,4.3248,10.3459a.5547.5547,0,0,1-.2214.7964c-.2782.1442-.5311.0642-.7576-.2584q-2.0731-2.9534-4.1419-5.91c-.0777-.1109-.1576-.22-.3028-.4226,0,.2166.0043.3347-.0007.4523a24.2734,24.2734,0,0,1-.1545,3.0468A5.9336,5.9336,0,0,1,51.3034,62a8.7262,8.7262,0,0,1-.9933.0614q-5.3852.0063-10.77.0018a6.0282,6.0282,0,0,1-5.9189-4.6206,6.1556,6.1556,0,0,1-.1737-1.3919c-.02-1.7888-.0084-3.578-.0078-5.3671,0-.5519.1821-.7286.7475-.73.4789-.0009.9578,0,1.4544,0,0-.3746.0074-.7154-.0057-1.0555a.3128.3128,0,0,0-.1231-.2162A21.6484,21.6484,0,0,1,29.9537,42.93c-.587-.8195-1.2013-1.62-1.8123-2.4217-.1988-.261-.3133-.5216-.0812-.8063.23-.2825.5069-.2227.8072-.0928,1.7523.7583,3.5093,1.5056,5.2651,2.2558C34.2328,41.9074,34.3363,41.9426,34.5106,42.0089Zm.0374,9.062c0,1.7964-.003,3.561.0042,5.3255a2.8936,2.8936,0,0,0,.0912.61,4.9513,4.9513,0,0,0,4.9424,3.9573q5.4191.0036,10.8379-.0019a5.9554,5.9554,0,0,0,.7865-.0595,4.9442,4.9442,0,0,0,4.2514-4.8238c.0088-1.2154.0045-2.4309-.002-3.6464a.7789.7789,0,0,0-.0909-.3868c-.161-.2631-.3595-.5028-.53-.76a.5144.5144,0,0,0-.4886-.2367q-6.9845.01-13.9688-.0018a.393.393,0,0,0-.4473.3342,20.9962,20.9962,0,0,0-.9914,6.6936c.0049.3929-.1477.6273-.4451.6753a.5711.5711,0,0,1-.6579-.4258c-.413-1.04-.9023-2.0574-1.2171-3.1263-.3952-1.3419-.6471-2.7261-.9688-4.1269ZM51.6055,29.1027A8.0625,8.0625,0,0,0,46.34,31.98a16.6566,16.6566,0,0,0-3.2667,7.5759,27.0787,27.0787,0,0,0-.2714,5.175,1.0255,1.0255,0,0,0,.0788.3633c.6124,1.54,1.2326,3.0765,1.8419,4.6175.081.2049.1789.3067.4912.175A36.89,36.89,0,0,1,51.6055,29.1027ZM60.1613,34.12c-.0556-.09-.089-.1566-.1339-.2145a4.0528,4.0528,0,0,0-6.0354-.4115,18.9915,18.9915,0,0,0-4.0428,5.5978c-1.21,2.6369-2.3055,5.3264-3.4489,7.9939a.62.62,0,0,0-.05.1969Q46.3714,48.4312,46.3,49.58a2.2386,2.2386,0,0,0,.0318.2905c.4337-.9773.834-1.8612,1.2195-2.7515a58.4643,58.4643,0,0,1,6.9351-12.0075,4.03,4.03,0,0,1,4.3554-1.5246A11.8881,11.8881,0,0,1,60.1613,34.12ZM47.5046,49.9541c.6527,0,1.237-.0106,1.8206.0053a.4269.4269,0,0,0,.4518-.2661c.5476-1.03,1.0975-2.0592,1.68-3.07a5.4281,5.4281,0,0,1,6.1658-2.5275,6.0991,6.0991,0,0,1,2.1146,1.0834.3693.3693,0,0,0-.0751-.1438,5.8443,5.8443,0,0,0-6.8384-1.81c-1.7426.7425-3.3536,1.7445-3.9957,3.7312a11.8948,11.8948,0,0,1-.499,1.128C48.0616,48.6876,47.7965,49.2918,47.5046,49.9541Zm-7.9915-3.1352c-.1308-.1447-.181-.2057-.2367-.2611a14.4111,14.4111,0,0,0-3.73-2.7873c-1.4543-.7178-2.9557-1.34-4.4376-2.0022-.277-.1237-.5593-.2352-.9109-.3824,1.7523,2.4161,3.4181,4.7942,5.9629,6.3682A3.0613,3.0613,0,0,1,39.5131,46.8189ZM41.57,33.6208c-.0514.0067-.0681.0039-.0732.01-.0355.0446-.0711.0895-.1023.1372A11.4124,11.4124,0,0,0,39.5,39.813a37.43,37.43,0,0,0,.7347,6.0235.7089.7089,0,0,0,.2007.3418,16.417,16.417,0,0,1,2.4912,3.4431.5007.5007,0,0,0,.6885.2955c-.0381-.0982-.0739-.193-.1115-.2871-.568-1.4223-1.1119-2.8548-1.71-4.2643A12.3233,12.3233,0,0,1,40.62,39.5677c.11-1.409.4081-2.8037.6317-4.2033C41.3441,34.785,41.4617,34.21,41.57,33.6208Zm-8.2081-2.14-.1115.005c.0589.9584.0857,1.92.1825,2.8746a20.9142,20.9142,0,0,0,2.7031,8.3129.6884.6884,0,0,0,.1776.2475c.4357.28.8809.5452,1.3886.8556Zm6.5534,16.956a1.8265,1.8265,0,0,0-2.48-.3533,1.4335,1.4335,0,0,0-.698,1.3219,22.2285,22.2285,0,0,0,.6745,4.6053c.1368.5063.2944,1.007.4424,1.51l.0929-.01A21.7793,21.7793,0,0,1,39.9154,48.4369ZM51.77,48.3377A5.946,5.946,0,0,1,55.95,50.9463c.5623.8219,1.14,1.6331,1.7118,2.4487.3978.5677.7967,1.1346,1.227,1.7472a.629.629,0,0,0-.0015-.1605c-.7749-1.855-1.52-3.7233-2.3383-5.5591a3.8942,3.8942,0,0,0-3.8346-2.2121.5821.5821,0,0,0-.3957.1436C52.116,47.6521,51.9621,47.9836,51.77,48.3377Zm-9.8987,1.6048-.8358-1.2973-.573,1.2973Zm11.2425.002.0245-.1245c-.5035-.1235-1.0036-.2637-1.5113-.3657-.4839-.0972-.5619-.0251-.67.49Z" style="fill: #585858"/>
  </g>
</svg>
