<svg xmlns="http://www.w3.org/2000/svg" viewBox="0 0 90 90">
  <g id="_ÎÓÈ_1" data-name="—ÎÓÈ_1">
    <g>
      <path d="M39.8321,51.3629c-.889-.0883-1.7292-.1649-2.5677-.2566-1.5439-.1688-3.0838-.3828-4.631-.5106a11.2977,11.2977,0,0,0-4.9891.6695c-.6021.2282-.9712-.0207-.9719-.6592a4.8261,4.8261,0,0,1,.9433-3.0712.6652.6652,0,0,0,.0418-.5267,13.0772,13.0772,0,0,1-.7719-4.9359,7.3756,7.3756,0,0,1,.3587-1.9837,17.61,17.61,0,0,0,.793-6.8736,4.9706,4.9706,0,0,0-.5737-2.1455,7.4864,7.4864,0,0,1-.79-3.6143c.0076-.57.4553-.8829.9257-.6066a8.03,8.03,0,0,0,6.2959.5927c1.5039-.3744,3.0219-.6916,4.5265-1.0633a10.8656,10.8656,0,0,1,5.1155.1614c1.5259.35,3.0317.7965,4.5667,1.0954a7.2713,7.2713,0,0,0,5.3113-.7508.6274.6274,0,0,1,1.0112.5819,8.0841,8.0841,0,0,1-.9242,3.8611,3.1569,3.1569,0,0,0-.4186,1.3873,18.524,18.524,0,0,0,.4337,6.2783,11.8051,11.8051,0,0,1,.7245,3.7349.3194.3194,0,0,0,.1517.2374,18.8669,18.8669,0,0,1,3.9672,2.9173,6.3617,6.3617,0,0,0,2.9568,1.62,6.1068,6.1068,0,0,0,1.2356.0824c.6294-.01.9518.4348.6736,1.0005a6.2866,6.2866,0,0,1-1.9377,2.3138,1.8362,1.8362,0,0,0-.4876.5339,13.2055,13.2055,0,0,0-1.8755,5.1052,7.4916,7.4916,0,0,1-2.31,4.1191.7356.7356,0,0,0-.21.6956,3.4551,3.4551,0,0,1-.47,2.1686.5733.5733,0,0,1-.94.1572,10.9188,10.9188,0,0,0-5.2049-2.8192,25.3327,25.3327,0,0,1-7.1071-3.6441,9.2664,9.2664,0,0,0-4.3363-1.6884.6038.6038,0,0,1-.5227-.9043,3.4172,3.4172,0,0,1,1.3788-1.6315.7474.7474,0,0,0,.4554-.7123A5.8434,5.8434,0,0,1,39.8321,51.3629Zm12.0069-17.61-.1638-.0313c-.21.1519-.4165.3081-.63.4547a.6295.6295,0,0,1-.7925-.9782c.36-.3586.7-.74,1.0808-1.0759A5.3875,5.3875,0,0,0,52.9623,29.14c.0447-.1963.0636-.3985.0994-.63a10.3,10.3,0,0,1-6.4211.1006c-1.1745-.3014-2.3495-.604-3.5335-.864a8.4511,8.4511,0,0,0-3.3824-.2917c-1.7183.3245-3.4327.6871-5.1256,1.1236a10.7392,10.7392,0,0,1-5.9125.1252c-.2115-.0637-.4218-.1315-.6963-.2172a5.9377,5.9377,0,0,0,1.6462,3.502c.4073.3758.7885.78,1.1795,1.1734a.651.651,0,0,1,.1133.9127c-.2117.2987-.5655.318-.9426.0682-.2076-.1375-.4048-.2908-.6439-.464,0,.21-.0006.3475,0,.4851a17.0976,17.0976,0,0,1-.9081,6.3082,4.83,4.83,0,0,0-.2607,1.21,11.8187,11.8187,0,0,0,.8909,5.4545A.7856.7856,0,0,1,28.8,48.18a2.2675,2.2675,0,0,0-.7846,1.6071,17.1887,17.1887,0,0,1,6.9736-.2248c1.613.2281,3.2429.3362,4.864.51.2977.0318.4068-.0975.5412-.3474a6.6487,6.6487,0,0,1,1.052-1.6636,12.961,12.961,0,0,0,2.8775-4.6254,1.8584,1.8584,0,0,0,.1209-.7139,6.4052,6.4052,0,0,1,.6432-2.9912A.627.627,0,0,1,46.25,39.64a4.3884,4.3884,0,0,0,2.4227,1.8274c1.3926.4092,2.82.7005,4.2722,1.052a7.8221,7.8221,0,0,0-.39-2.4064,24.4664,24.4664,0,0,1-.6931-3.418A25.5162,25.5162,0,0,1,51.839,33.7524Zm3.2344,28.2644.1082-.0634a1.8627,1.8627,0,0,0-.0654-.6249.9936.9936,0,0,1,.32-1.2927,7.0186,7.0186,0,0,0,2.3146-3.9936,14.57,14.57,0,0,1,.5-2.1923c.204-.654.5171-1.2739.7856-1.9173a.5672.5672,0,0,0-.1414-.0263c-.4016.0345-.7133-.0846-.7887-.52-.0756-.4369.196-.6406.5689-.7631.4372-.1436.8758-.2852,1.3053-.45a4.2194,4.2194,0,0,0,1.6276-1.3365,8.2017,8.2017,0,0,1-4.6337-2.4985,10.8443,10.8443,0,0,0-5.949-3.0029,10.22,10.22,0,0,1-3.4444-.96c-.5862-.3212-1.1306-.7188-1.7218-1.1a3.9226,3.9226,0,0,0,.0393,2.2039c.1573.4162.2833.8441.4286,1.2649a.5775.5775,0,0,1-.2761.75.6015.6015,0,0,1-.8226-.17c-.0634-.0772-.1188-.1611-.201-.2736-.0872.1723-.1548.3085-.2246.4434A11.0759,11.0759,0,0,1,42.69,48.5557a4.6869,4.6869,0,0,0-1.3293,2.1275,20.1588,20.1588,0,0,0-.5129,2.3785c-.0729.4616-.2041.7741-.7038.8877a2.8388,2.8388,0,0,0-.6849.3863c.1084.0752.1423.1153.1833.1248a12.8963,12.8963,0,0,1,4.2941,2.0637A21.7252,21.7252,0,0,0,49.43,59.3993,15.6071,15.6071,0,0,1,55.0734,62.0168Z" style="fill: #585858"/>
      <path d="M29.6084,42.89a12.1755,12.1755,0,0,1,.8-4.1837c.1889-.5106.51-.6963.903-.5477.3537.1337.4552.4869.2846.9785a9.6731,9.6731,0,0,0-.6392,4.8318,9.5221,9.5221,0,0,0,.5882,1.8732c.1945.4926.1853.8139-.1568,1.0078-.3657.2074-.7035.0688-.9664-.41A7.12,7.12,0,0,1,29.6084,42.89Z" style="fill: #585858"/>
      <path d="M56.9433,54.52a1.024,1.024,0,0,1-.0306.2279A9.882,9.882,0,0,1,54.4555,58.86a4.4487,4.4487,0,0,1-1.0947.66.536.536,0,0,1-.7534-.3294.5574.5574,0,0,1,.2593-.791,4.09,4.09,0,0,0,1.924-2.0389c.3545-.6609.6283-1.3649.9418-2.048.1348-.294.3741-.5081.6876-.3952a2.3419,2.3419,0,0,1,.6073.4985Z" style="fill: #585858"/>
    </g>
  </g>
</svg>
